<svg width="7" height="12" viewBox="0 0 7 12" fill="none" xmlns="http://www.w3.org/2000/svg">
<path d="M2.36255 10.8583L6.38755 6.64167C6.47505 6.55 6.53688 6.4507 6.57305 6.34375C6.6098 6.23681 6.62817 6.12223 6.62817 6C6.62817 5.87778 6.6098 5.7632 6.57305 5.65625C6.53688 5.54931 6.47505 5.45 6.38755 5.35834L2.36255 1.14167C2.20213 0.973615 1.99797 0.889587 1.75005 0.889587C1.50213 0.889587 1.29797 0.973615 1.13755 1.14167C0.977132 1.30973 0.896924 1.52362 0.896924 1.78334C0.896924 2.04306 0.977132 2.25695 1.13755 2.425L4.55005 6L1.13755 9.575C0.977132 9.74306 0.896924 9.95695 0.896924 10.2167C0.896924 10.4764 0.977132 10.6903 1.13755 10.8583C1.29797 11.0264 1.50213 11.1104 1.75005 11.1104C1.99797 11.1104 2.20213 11.0264 2.36255 10.8583V10.8583Z" fill="#657372"/>
</svg>
